<svg xmlns="http://www.w3.org/2000/svg" xmlns:xlink="http://www.w3.org/1999/xlink" contentStyleType="text/css" height="629px" preserveAspectRatio="none" style="width:527px;height:629px;background:#FFFFFF;" version="1.1" viewBox="0 0 527 629" width="527px" zoomAndPan="magnify"><defs/><g><rect fill="none" height="232.7344" style="stroke:#000000;stroke-width:1.5;" width="510.2393" x="10" y="299.0938"/><line style="stroke:#181818;stroke-width:0.5;stroke-dasharray:5.0,5.0;" x1="41" x2="41" y1="81.2969" y2="548.8281"/><line style="stroke:#181818;stroke-width:0.5;stroke-dasharray:5.0,5.0;" x1="176.2344" x2="176.2344" y1="81.2969" y2="548.8281"/><line style="stroke:#181818;stroke-width:0.5;stroke-dasharray:5.0,5.0;" x1="345.2427" x2="345.2427" y1="81.2969" y2="548.8281"/><text fill="#000000" font-family="sans-serif" font-size="14" lengthAdjust="spacing" textLength="36.0117" x="20" y="77.9951">Klant</text><ellipse cx="41.0059" cy="13.5" fill="#E2E2F0" rx="8" ry="8" style="stroke:#181818;stroke-width:0.5;"/><path d="M41.0059,21.5 L41.0059,48.5 M28.0059,29.5 L54.0059,29.5 M41.0059,48.5 L28.0059,63.5 M41.0059,48.5 L54.0059,63.5 " fill="none" style="stroke:#181818;stroke-width:0.5;"/><text fill="#000000" font-family="sans-serif" font-size="14" lengthAdjust="spacing" textLength="36.0117" x="20" y="560.8232">Klant</text><ellipse cx="41.0059" cy="572.625" fill="#E2E2F0" rx="8" ry="8" style="stroke:#181818;stroke-width:0.5;"/><path d="M41.0059,580.625 L41.0059,607.625 M28.0059,588.625 L54.0059,588.625 M41.0059,607.625 L28.0059,622.625 M41.0059,607.625 L54.0059,622.625 " fill="none" style="stroke:#181818;stroke-width:0.5;"/><rect fill="#E2E2F0" height="30.2969" rx="2.5" ry="2.5" style="stroke:#181818;stroke-width:0.5;" width="121.3994" x="116.2344" y="50"/><text fill="#000000" font-family="sans-serif" font-size="14" lengthAdjust="spacing" textLength="107.3994" x="123.2344" y="69.9951">Amazon Proces</text><rect fill="#E2E2F0" height="30.2969" rx="2.5" ry="2.5" style="stroke:#181818;stroke-width:0.5;" width="121.3994" x="116.2344" y="547.8281"/><text fill="#000000" font-family="sans-serif" font-size="14" lengthAdjust="spacing" textLength="107.3994" x="123.2344" y="567.8232">Amazon Proces</text><rect fill="#E2E2F0" height="30.2969" rx="2.5" ry="2.5" style="stroke:#181818;stroke-width:0.5;" width="112.8818" x="289.2427" y="50"/><text fill="#000000" font-family="sans-serif" font-size="14" lengthAdjust="spacing" textLength="98.8818" x="296.2427" y="69.9951">PostNL Proces</text><rect fill="#E2E2F0" height="30.2969" rx="2.5" ry="2.5" style="stroke:#181818;stroke-width:0.5;" width="112.8818" x="289.2427" y="547.8281"/><text fill="#000000" font-family="sans-serif" font-size="14" lengthAdjust="spacing" textLength="98.8818" x="296.2427" y="567.8232">PostNL Proces</text><polygon fill="#181818" points="164.9341,108.4297,174.9341,112.4297,164.9341,116.4297,168.9341,112.4297" style="stroke:#181818;stroke-width:1.0;"/><line style="stroke:#181818;stroke-width:1.0;" x1="41.0059" x2="170.9341" y1="112.4297" y2="112.4297"/><text fill="#000000" font-family="sans-serif" font-size="13" lengthAdjust="spacing" textLength="111.9282" x="48.0059" y="107.3638">Plaatst bestelling</text><line style="stroke:#181818;stroke-width:1.0;" x1="176.9341" x2="218.9341" y1="141.5625" y2="141.5625"/><line style="stroke:#181818;stroke-width:1.0;" x1="218.9341" x2="218.9341" y1="141.5625" y2="154.5625"/><line style="stroke:#181818;stroke-width:1.0;" x1="177.9341" x2="218.9341" y1="154.5625" y2="154.5625"/><polygon fill="#181818" points="187.9341,150.5625,177.9341,154.5625,187.9341,158.5625,183.9341,154.5625" style="stroke:#181818;stroke-width:1.0;"/><text fill="#000000" font-family="sans-serif" font-size="13" lengthAdjust="spacing" textLength="154.7495" x="183.9341" y="136.4966">Bestelling wordt gepakt</text><polygon fill="#181818" points="333.6836,179.6953,343.6836,183.6953,333.6836,187.6953,337.6836,183.6953" style="stroke:#181818;stroke-width:1.0;"/><line style="stroke:#181818;stroke-width:1.0;" x1="176.9341" x2="339.6836" y1="183.6953" y2="183.6953"/><text fill="#000000" font-family="sans-serif" font-size="13" lengthAdjust="spacing" textLength="137.8774" x="183.9341" y="178.6294">Pakket overhandigen</text><line style="stroke:#181818;stroke-width:1.0;" x1="345.6836" x2="387.6836" y1="212.8281" y2="212.8281"/><line style="stroke:#181818;stroke-width:1.0;" x1="387.6836" x2="387.6836" y1="212.8281" y2="225.8281"/><line style="stroke:#181818;stroke-width:1.0;" x1="346.6836" x2="387.6836" y1="225.8281" y2="225.8281"/><polygon fill="#181818" points="356.6836,221.8281,346.6836,225.8281,356.6836,229.8281,352.6836,225.8281" style="stroke:#181818;stroke-width:1.0;"/><text fill="#000000" font-family="sans-serif" font-size="13" lengthAdjust="spacing" textLength="117.7681" x="352.6836" y="207.7622">Pakket ontvangen</text><polygon fill="#181818" points="52.0059,250.9609,42.0059,254.9609,52.0059,258.9609,48.0059,254.9609" style="stroke:#181818;stroke-width:1.0;"/><line style="stroke:#181818;stroke-width:1.0;" x1="46.0059" x2="344.6836" y1="254.9609" y2="254.9609"/><text fill="#000000" font-family="sans-serif" font-size="13" lengthAdjust="spacing" textLength="181.4985" x="58.0059" y="249.895">Keuze ophalen of bezorging</text><polygon fill="#181818" points="333.6836,280.0938,343.6836,284.0938,333.6836,288.0938,337.6836,284.0938" style="stroke:#181818;stroke-width:1.0;"/><line style="stroke:#181818;stroke-width:1.0;" x1="41.0059" x2="339.6836" y1="284.0938" y2="284.0938"/><text fill="#000000" font-family="sans-serif" font-size="13" lengthAdjust="spacing" textLength="210.4946" x="48.0059" y="279.0278">Klant kiest ophalen of bezorging</text><path d="M10,299.0938 L74.4429,299.0938 L74.4429,306.2266 L64.4429,316.2266 L10,316.2266 L10,299.0938 " fill="#EEEEEE" style="stroke:#000000;stroke-width:1.5;"/><rect fill="none" height="232.7344" style="stroke:#000000;stroke-width:1.5;" width="510.2393" x="10" y="299.0938"/><text fill="#000000" font-family="sans-serif" font-size="13" font-weight="bold" lengthAdjust="spacing" textLength="19.4429" x="25" y="312.1606">alt</text><text fill="#000000" font-family="sans-serif" font-size="11" font-weight="bold" lengthAdjust="spacing" textLength="128.3638" x="89.4429" y="311.3042">[Bezorging gekozen]</text><line style="stroke:#181818;stroke-width:1.0;" x1="345.6836" x2="387.6836" y1="337.3594" y2="337.3594"/><line style="stroke:#181818;stroke-width:1.0;" x1="387.6836" x2="387.6836" y1="337.3594" y2="350.3594"/><line style="stroke:#181818;stroke-width:1.0;" x1="346.6836" x2="387.6836" y1="350.3594" y2="350.3594"/><polygon fill="#181818" points="356.6836,346.3594,346.6836,350.3594,356.6836,354.3594,352.6836,350.3594" style="stroke:#181818;stroke-width:1.0;"/><text fill="#000000" font-family="sans-serif" font-size="13" lengthAdjust="spacing" textLength="127.4355" x="352.6836" y="332.2935">Bezorger onderweg</text><polygon fill="#181818" points="52.0059,375.4922,42.0059,379.4922,52.0059,383.4922,48.0059,379.4922" style="stroke:#181818;stroke-width:1.0;"/><line style="stroke:#181818;stroke-width:1.0;" x1="46.0059" x2="344.6836" y1="379.4922" y2="379.4922"/><text fill="#000000" font-family="sans-serif" font-size="13" lengthAdjust="spacing" textLength="116.0288" x="58.0059" y="374.4263">Bezorger belt aan</text><polygon fill="#181818" points="333.6836,404.625,343.6836,408.625,333.6836,412.625,337.6836,408.625" style="stroke:#181818;stroke-width:1.0;"/><line style="stroke:#181818;stroke-width:1.0;" x1="41.0059" x2="339.6836" y1="408.625" y2="408.625"/><text fill="#000000" font-family="sans-serif" font-size="13" lengthAdjust="spacing" textLength="68.1675" x="48.0059" y="403.5591">Deur open</text><polygon fill="#181818" points="52.0059,433.7578,42.0059,437.7578,52.0059,441.7578,48.0059,437.7578" style="stroke:#181818;stroke-width:1.0;"/><line style="stroke:#181818;stroke-width:1.0;" x1="46.0059" x2="344.6836" y1="437.7578" y2="437.7578"/><text fill="#000000" font-family="sans-serif" font-size="13" lengthAdjust="spacing" textLength="100.9658" x="58.0059" y="432.6919">Pakket bezorgd</text><line style="stroke:#000000;stroke-width:1.0;stroke-dasharray:2.0,2.0;" x1="10" x2="520.2393" y1="446.7578" y2="446.7578"/><text fill="#000000" font-family="sans-serif" font-size="11" font-weight="bold" lengthAdjust="spacing" textLength="117.3262" x="15" y="456.9683">[Ophalen gekozen]</text><line style="stroke:#181818;stroke-width:1.0;" x1="345.6836" x2="387.6836" y1="481.6953" y2="481.6953"/><line style="stroke:#181818;stroke-width:1.0;" x1="387.6836" x2="387.6836" y1="481.6953" y2="494.6953"/><line style="stroke:#181818;stroke-width:1.0;" x1="346.6836" x2="387.6836" y1="494.6953" y2="494.6953"/><polygon fill="#181818" points="356.6836,490.6953,346.6836,494.6953,356.6836,498.6953,352.6836,494.6953" style="stroke:#181818;stroke-width:1.0;"/><text fill="#000000" font-family="sans-serif" font-size="13" lengthAdjust="spacing" textLength="155.5557" x="352.6836" y="476.6294">Pakket naar ophaalpunt</text><polygon fill="#181818" points="52.0059,519.8281,42.0059,523.8281,52.0059,527.8281,48.0059,523.8281" style="stroke:#181818;stroke-width:1.0;"/><line style="stroke:#181818;stroke-width:1.0;" x1="46.0059" x2="344.6836" y1="523.8281" y2="523.8281"/><text fill="#000000" font-family="sans-serif" font-size="13" lengthAdjust="spacing" textLength="157.9932" x="58.0059" y="518.7622">Pakket wordt opgehaald</text><!--SRC=[XPB1ReCm38RlUGghbvts0ZrCsjHRfurNSC5D4LaS9QQLUFgP9Z1OqSOfSNx__-S4h8KZ71rwCG6Zj7KRT0sxroySs4CLkQQq0qoGAsjLnKa-tfUgN37c2LOEvXu1pozJUG-LGvGaSA8av5phhIbdIzNRV0etZes0fO2TBAI5GGsnwqY0hnGlw9lMaXyvLeocxBRwl5pHZqq_caozXoFr0m672phom6U57ZZQaNaURFRBbQvLykqMWqvqiBBLYJeUD1Rqsy3BGeeAs52yaVqbd1XdtOdK7Z4RFk8Tg5Uly10u-PJhoBYD8PS8FiiO_w2MLeyOxvEZ2xt-M7_cv5VbO6dKQvvllW40]--></g></svg>