<svg xmlns="http://www.w3.org/2000/svg" xmlns:xlink="http://www.w3.org/1999/xlink" contentStyleType="text/css" height="464px" preserveAspectRatio="none" style="width:280px;height:464px;background:#FFFFFF;" version="1.1" viewBox="0 0 280 464" width="280px" zoomAndPan="magnify"><defs/><g><path d="M19.5,7 L254.829,7 A12.5,12.5 0 0 1 267.329,19.5 L267.329,33.2969 L7,33.2969 L7,19.5 A12.5,12.5 0 0 1 19.5,7 " fill="#F1F1F1" style="stroke:#F1F1F1;stroke-width:1.0;"/><rect fill="none" height="451.2969" rx="12.5" ry="12.5" style="stroke:#181818;stroke-width:0.5;" width="260.329" x="7" y="7"/><line style="stroke:#181818;stroke-width:0.5;" x1="7" x2="267.329" y1="33.2969" y2="33.2969"/><text fill="#000000" font-family="sans-serif" font-size="14" lengthAdjust="spacing" textLength="107.3994" x="83.4648" y="24.9951">Amazon Proces</text><ellipse cx="49.37" cy="54.2969" fill="#222222" rx="10" ry="10" style="stroke:#222222;stroke-width:1.0;"/><g id="Amazon.Stap0"><rect fill="#F1F1F1" height="50" rx="12.5" ry="12.5" style="stroke:#181818;stroke-width:0.5;" width="60.749" x="19" y="117.2969"/><line style="stroke:#181818;stroke-width:0.5;" x1="19" x2="79.749" y1="143.5938" y2="143.5938"/><text fill="#000000" font-family="sans-serif" font-size="14" lengthAdjust="spacing" textLength="40.749" x="29" y="135.292">Stap0</text></g><g id="Amazon.Stap1"><rect fill="#F1F1F1" height="50" rx="12.5" ry="12.5" style="stroke:#181818;stroke-width:0.5;" width="60.749" x="19" y="220.2969"/><line style="stroke:#181818;stroke-width:0.5;" x1="19" x2="79.749" y1="246.5938" y2="246.5938"/><text fill="#000000" font-family="sans-serif" font-size="14" lengthAdjust="spacing" textLength="40.749" x="29" y="238.292">Stap1</text></g><g id="Amazon.Stap2"><rect fill="#F1F1F1" height="50" rx="12.5" ry="12.5" style="stroke:#181818;stroke-width:0.5;" width="60.749" x="19" y="323.2969"/><line style="stroke:#181818;stroke-width:0.5;" x1="19" x2="79.749" y1="349.5938" y2="349.5938"/><text fill="#000000" font-family="sans-serif" font-size="14" lengthAdjust="spacing" textLength="40.749" x="29" y="341.292">Stap2</text></g><ellipse cx="49.37" cy="437.2969" fill="none" rx="11" ry="11" style="stroke:#222222;stroke-width:1.0;"/><ellipse cx="49.37" cy="437.2969" fill="#222222" rx="6" ry="6" style="stroke:#222222;stroke-width:1.0;"/><!--link *start*Amazon to Stap0--><g id="link_*start*Amazon_Stap0"><path d="M49.37,64.4969 C49.37,76.8969 49.37,93.4069 49.37,110.8569 " fill="none" id="*start*Amazon-to-Stap0" style="stroke:#181818;stroke-width:1.0;"/><polygon fill="#181818" points="49.37,116.8569,53.37,107.8569,49.37,111.8569,45.37,107.8569,49.37,116.8569" style="stroke:#181818;stroke-width:1.0;"/><text fill="#000000" font-family="sans-serif" font-size="13" lengthAdjust="spacing" textLength="158.3359" x="50.37" y="95.3638">Bestelling niet geplaatst</text></g><!--link Stap0 to Stap1--><g id="link_Stap0_Stap1"><path d="M49.37,167.7469 C49.37,183.6269 49.37,198.2369 49.37,214.0769 " fill="none" id="Stap0-to-Stap1" style="stroke:#181818;stroke-width:1.0;"/><polygon fill="#181818" points="49.37,220.0769,53.37,211.0769,49.37,215.0769,45.37,211.0769,49.37,220.0769" style="stroke:#181818;stroke-width:1.0;"/><text fill="#000000" font-family="sans-serif" font-size="13" lengthAdjust="spacing" textLength="129.2573" x="50.37" y="198.3638">Bestelling geplaatst</text></g><!--link Stap1 to Stap2--><g id="link_Stap1_Stap2"><path d="M49.37,270.7469 C49.37,286.6269 49.37,301.2369 49.37,317.0769 " fill="none" id="Stap1-to-Stap2" style="stroke:#181818;stroke-width:1.0;"/><polygon fill="#181818" points="49.37,323.0769,53.37,314.0769,49.37,318.0769,45.37,314.0769,49.37,323.0769" style="stroke:#181818;stroke-width:1.0;"/><text fill="#000000" font-family="sans-serif" font-size="13" lengthAdjust="spacing" textLength="125.1885" x="50.37" y="301.3638">Bestelling ingepakt</text></g><!--link Stap2 to *end*Amazon--><g id="link_Stap2_*end*Amazon"><path d="M49.37,373.5269 C49.37,390.8269 49.37,407.2169 49.37,420.0469 " fill="none" id="Stap2-to-*end*Amazon" style="stroke:#181818;stroke-width:1.0;"/><polygon fill="#181818" points="49.37,426.0469,53.37,417.0469,49.37,421.0469,45.37,417.0469,49.37,426.0469" style="stroke:#181818;stroke-width:1.0;"/><text fill="#000000" font-family="sans-serif" font-size="13" lengthAdjust="spacing" textLength="206.959" x="50.37" y="404.3638">Pakket overhandigd aan PostNL</text></g><!--SRC=[PSyn2y8m40NWFR_YqKKG2hPZ1q5daOAZE1psY24n2StXeFZVZPKgmODR7X_SkmKsLxe7ZtuCPqug2GcZAi8Ab6RsKCXpN9vGrsiSXE8A7RQSX9qpNiCR5cYEZaYIJFgZPj-K_fysNzgMD2z7iZ_PJl9TfaDFrkRBuSRZXVnWz02Y_458ij-fvmi0]--></g></svg>