<svg xmlns="http://www.w3.org/2000/svg" xmlns:xlink="http://www.w3.org/1999/xlink" contentStyleType="text/css" height="1040px" preserveAspectRatio="none" style="width:501px;height:1040px;background:#FFFFFF;" version="1.1" viewBox="0 0 501 1040" width="501px" zoomAndPan="magnify"><defs/><g><path d="M19.5,7 L475.2991,7 A12.5,12.5 0 0 1 487.7991,19.5 L487.7991,33.2969 L7,33.2969 L7,19.5 A12.5,12.5 0 0 1 19.5,7 " fill="#F1F1F1" style="stroke:#F1F1F1;stroke-width:1.0;"/><rect fill="none" height="1027.2969" rx="12.5" ry="12.5" style="stroke:#181818;stroke-width:0.5;" width="480.7991" x="7" y="7"/><line style="stroke:#181818;stroke-width:0.5;" x1="7" x2="487.7991" y1="33.2969" y2="33.2969"/><text fill="#000000" font-family="sans-serif" font-size="14" lengthAdjust="spacing" textLength="98.8818" x="197.9586" y="24.9951">PostNL Proces</text><ellipse cx="176.97" cy="54.2969" fill="#222222" rx="10" ry="10" style="stroke:#222222;stroke-width:1.0;"/><g id="PostNL.Stap0"><rect fill="#F1F1F1" height="50" rx="12.5" ry="12.5" style="stroke:#181818;stroke-width:0.5;" width="60.749" x="146.6" y="117.2969"/><line style="stroke:#181818;stroke-width:0.5;" x1="146.6" x2="207.349" y1="143.5938" y2="143.5938"/><text fill="#000000" font-family="sans-serif" font-size="14" lengthAdjust="spacing" textLength="40.749" x="156.6" y="135.292">Stap0</text></g><g id="PostNL.Stap1"><rect fill="#F1F1F1" height="50" rx="12.5" ry="12.5" style="stroke:#181818;stroke-width:0.5;" width="60.749" x="146.6" y="220.2969"/><line style="stroke:#181818;stroke-width:0.5;" x1="146.6" x2="207.349" y1="246.5938" y2="246.5938"/><text fill="#000000" font-family="sans-serif" font-size="14" lengthAdjust="spacing" textLength="40.749" x="156.6" y="238.292">Stap1</text></g><g id="PostNL.KeuzeKlant"><rect fill="#F1F1F1" height="50" rx="12.5" ry="12.5" style="stroke:#181818;stroke-width:0.5;" width="98.6406" x="127.65" y="323.2969"/><line style="stroke:#181818;stroke-width:0.5;" x1="127.65" x2="226.2906" y1="349.5938" y2="349.5938"/><text fill="#000000" font-family="sans-serif" font-size="14" lengthAdjust="spacing" textLength="78.6406" x="137.65" y="341.292">KeuzeKlant</text></g><g id="PostNL.Stap3"><rect fill="#F1F1F1" height="50" rx="12.5" ry="12.5" style="stroke:#181818;stroke-width:0.5;" width="60.749" x="49.6" y="494.2969"/><line style="stroke:#181818;stroke-width:0.5;" x1="49.6" x2="110.349" y1="520.5938" y2="520.5938"/><text fill="#000000" font-family="sans-serif" font-size="14" lengthAdjust="spacing" textLength="40.749" x="59.6" y="512.292">Stap3</text></g><g id="PostNL.Stap4"><rect fill="#F1F1F1" height="50" rx="12.5" ry="12.5" style="stroke:#181818;stroke-width:0.5;" width="60.749" x="236.6" y="426.2969"/><line style="stroke:#181818;stroke-width:0.5;" x1="236.6" x2="297.349" y1="452.5938" y2="452.5938"/><text fill="#000000" font-family="sans-serif" font-size="14" lengthAdjust="spacing" textLength="40.749" x="246.6" y="444.292">Stap4</text></g><g id="PostNL.Stap5"><rect fill="#F1F1F1" height="50" rx="12.5" ry="12.5" style="stroke:#181818;stroke-width:0.5;" width="60.749" x="242.6" y="562.2969"/><line style="stroke:#181818;stroke-width:0.5;" x1="242.6" x2="303.349" y1="588.5938" y2="588.5938"/><text fill="#000000" font-family="sans-serif" font-size="14" lengthAdjust="spacing" textLength="40.749" x="252.6" y="580.292">Stap5</text></g><g id="PostNL.Stap6"><rect fill="#F1F1F1" height="50" rx="12.5" ry="12.5" style="stroke:#181818;stroke-width:0.5;" width="60.749" x="244.6" y="665.2969"/><line style="stroke:#181818;stroke-width:0.5;" x1="244.6" x2="305.349" y1="691.5938" y2="691.5938"/><text fill="#000000" font-family="sans-serif" font-size="14" lengthAdjust="spacing" textLength="40.749" x="254.6" y="683.292">Stap6</text></g><g id="PostNL.PakketBinnen"><rect fill="#F1F1F1" height="50" rx="12.5" ry="12.5" style="stroke:#181818;stroke-width:0.5;" width="116.0654" x="118.94" y="974.2969"/><line style="stroke:#181818;stroke-width:0.5;" x1="118.94" x2="235.0054" y1="1000.5938" y2="1000.5938"/><text fill="#000000" font-family="sans-serif" font-size="14" lengthAdjust="spacing" textLength="96.0654" x="128.94" y="992.292">PakketBinnen</text></g><g id="PostNL.Stap8"><rect fill="#F1F1F1" height="50" rx="12.5" ry="12.5" style="stroke:#181818;stroke-width:0.5;" width="60.749" x="99.6" y="768.2969"/><line style="stroke:#181818;stroke-width:0.5;" x1="99.6" x2="160.349" y1="794.5938" y2="794.5938"/><text fill="#000000" font-family="sans-serif" font-size="14" lengthAdjust="spacing" textLength="40.749" x="109.6" y="786.292">Stap8</text></g><g id="PostNL.Ophaalpunt"><rect fill="#F1F1F1" height="50" rx="12.5" ry="12.5" style="stroke:#181818;stroke-width:0.5;" width="101.9492" x="19" y="871.2969"/><line style="stroke:#181818;stroke-width:0.5;" x1="19" x2="120.9492" y1="897.5938" y2="897.5938"/><text fill="#000000" font-family="sans-serif" font-size="14" lengthAdjust="spacing" textLength="81.9492" x="29" y="889.292">Ophaalpunt</text></g><!--link *start*PostNL to Stap0--><g id="link_*start*PostNL_Stap0"><path d="M176.97,64.4969 C176.97,76.8969 176.97,93.4069 176.97,110.8569 " fill="none" id="*start*PostNL-to-Stap0" style="stroke:#181818;stroke-width:1.0;"/><polygon fill="#181818" points="176.97,116.8569,180.97,107.8569,176.97,111.8569,172.97,107.8569,176.97,116.8569" style="stroke:#181818;stroke-width:1.0;"/><text fill="#000000" font-family="sans-serif" font-size="13" lengthAdjust="spacing" textLength="211.085" x="177.97" y="95.3638">Wachten op pakket van Amazon</text></g><!--link Stap0 to Stap1--><g id="link_Stap0_Stap1"><path d="M176.97,167.7469 C176.97,183.6269 176.97,198.2369 176.97,214.0769 " fill="none" id="Stap0-to-Stap1" style="stroke:#181818;stroke-width:1.0;"/><polygon fill="#181818" points="176.97,220.0769,180.97,211.0769,176.97,215.0769,172.97,211.0769,176.97,220.0769" style="stroke:#181818;stroke-width:1.0;"/><text fill="#000000" font-family="sans-serif" font-size="13" lengthAdjust="spacing" textLength="202.4712" x="177.97" y="198.3638">Pakket ontvangen van Amazon</text></g><!--link Stap1 to KeuzeKlant--><g id="link_Stap1_KeuzeKlant"><path d="M176.97,270.7469 C176.97,286.6269 176.97,301.2369 176.97,317.0769 " fill="none" id="Stap1-to-KeuzeKlant" style="stroke:#181818;stroke-width:1.0;"/><polygon fill="#181818" points="176.97,323.0769,180.97,314.0769,176.97,318.0769,172.97,314.0769,176.97,323.0769" style="stroke:#181818;stroke-width:1.0;"/><text fill="#000000" font-family="sans-serif" font-size="13" lengthAdjust="spacing" textLength="119.1011" x="177.97" y="301.3638">Pakket gesorteerd</text></g><!--link KeuzeKlant to Stap3--><g id="link_KeuzeKlant_Stap3"><path d="M127.29,368.2769 C117.21,374.2369 107.67,381.8169 100.97,391.2969 C79.44,421.7869 76.8624,460.5405 77.8124,487.9805 " fill="none" id="KeuzeKlant-to-Stap3" style="stroke:#181818;stroke-width:1.0;"/><polygon fill="#181818" points="78.02,493.9769,81.7062,484.8439,77.847,488.9799,73.711,485.1207,78.02,493.9769" style="stroke:#181818;stroke-width:1.0;"/><text fill="#000000" font-family="sans-serif" font-size="13" lengthAdjust="spacing" textLength="127.4927" x="101.97" y="404.3638">Pakket zelf ophalen</text></g><!--link KeuzeKlant to Stap4--><g id="link_KeuzeKlant_Stap4"><path d="M214.8,373.6069 C221.64,378.9569 228.36,384.9369 233.97,391.2969 C242.98,401.5069 247.9091,409.2141 253.5491,420.4541 " fill="none" id="KeuzeKlant-to-Stap4" style="stroke:#181818;stroke-width:1.0;"/><polygon fill="#181818" points="256.24,425.8169,255.7788,415.9788,253.9976,421.3479,248.6285,419.5667,256.24,425.8169" style="stroke:#181818;stroke-width:1.0;"/><text fill="#000000" font-family="sans-serif" font-size="13" lengthAdjust="spacing" textLength="145.9961" x="246.97" y="404.3638">Pakket laten bezorgen</text></g><!--link Stap4 to Stap5--><g id="link_Stap4_Stap5"><path d="M268.06,476.5669 C269.15,500.8469 270.5402,531.9929 271.6302,556.2129 " fill="none" id="Stap4-to-Stap5" style="stroke:#181818;stroke-width:1.0;"/><polygon fill="#181818" points="271.9,562.2069,275.4913,553.0361,271.6752,557.2119,267.4994,553.3958,271.9,562.2069" style="stroke:#181818;stroke-width:1.0;"/><text fill="#000000" font-family="sans-serif" font-size="13" lengthAdjust="spacing" textLength="205.8291" x="271.97" y="523.8638">Bezorger onderweg met pakket</text></g><!--link Stap5 to Stap6--><g id="link_Stap5_Stap6"><path d="M273.46,612.7469 C273.77,628.6269 274.0626,643.238 274.3726,659.078 " fill="none" id="Stap5-to-Stap6" style="stroke:#181818;stroke-width:1.0;"/><polygon fill="#181818" points="274.49,665.0769,278.3131,656.0003,274.3922,660.0778,270.3147,656.1569,274.49,665.0769" style="stroke:#181818;stroke-width:1.0;"/><text fill="#000000" font-family="sans-serif" font-size="13" lengthAdjust="spacing" textLength="116.0288" x="274.97" y="643.3638">Bezorger belt aan</text></g><!--link Stap6 to PakketBinnen--><g id="link_Stap6_PakketBinnen"><path d="M282.32,715.7369 C295.75,765.6569 318.6,880.9769 268.97,956.2969 C260.96,968.4669 253.9038,974.6126 240.6838,980.8026 " fill="none" id="Stap6-to-PakketBinnen" style="stroke:#181818;stroke-width:1.0;"/><polygon fill="#181818" points="235.25,983.3469,245.0969,983.153,239.7782,981.2266,241.7046,975.9079,235.25,983.3469" style="stroke:#181818;stroke-width:1.0;"/><text fill="#000000" font-family="sans-serif" font-size="13" lengthAdjust="spacing" textLength="68.1675" x="299.97" y="849.3638">Deur open</text></g><!--link Stap6 to Stap8--><g id="link_Stap6_Stap8"><path d="M244.15,709.2369 C239.8,711.4369 235.33,713.5269 230.97,715.2969 C203.61,726.4469 190.63,715.5969 166.97,733.2969 C155.16,742.1369 148.9358,750.6018 142.7958,762.6418 " fill="none" id="Stap6-to-Stap8" style="stroke:#181818;stroke-width:1.0;"/><polygon fill="#181818" points="140.07,767.9869,147.7221,761.7865,142.3415,763.5326,140.5953,758.152,140.07,767.9869" style="stroke:#181818;stroke-width:1.0;"/><text fill="#000000" font-family="sans-serif" font-size="13" lengthAdjust="spacing" textLength="100.9658" x="167.97" y="746.3638">Deur blijft dicht</text></g><!--link Stap8 to Ophaalpunt--><g id="link_Stap8_Ophaalpunt"><path d="M99.34,808.5069 C88.37,815.2769 77.18,824.5069 70.97,836.2969 C65.49,846.7269 64.2834,853.7035 65.1134,864.8235 " fill="none" id="Stap8-to-Ophaalpunt" style="stroke:#181818;stroke-width:1.0;"/><polygon fill="#181818" points="65.56,870.8069,68.879,861.5341,65.1878,865.8207,60.9012,862.1296,65.56,870.8069" style="stroke:#181818;stroke-width:1.0;"/><text fill="#000000" font-family="sans-serif" font-size="13" lengthAdjust="spacing" textLength="188.9697" x="71.97" y="849.3638">Pakket gaat naar ophaalpunt</text></g><!--link Stap3 to Ophaalpunt--><g id="link_Stap3_Ophaalpunt"><path d="M65.42,544.5669 C52.94,567.6869 36.97,603.9069 36.97,637.7969 C36.97,637.7969 36.97,637.7969 36.97,794.2969 C36.97,821.5969 45.471,845.6459 54.781,865.6759 " fill="none" id="Stap3-to-Ophaalpunt" style="stroke:#181818;stroke-width:1.0;"/><polygon fill="#181818" points="57.31,871.1169,57.1438,861.2694,55.2025,866.5827,49.8892,864.6414,57.31,871.1169" style="stroke:#181818;stroke-width:1.0;"/><text fill="#000000" font-family="sans-serif" font-size="13" lengthAdjust="spacing" textLength="188.9697" x="37.97" y="694.8638">Pakket gaat naar ophaalpunt</text></g><!--link Ophaalpunt to PakketBinnen--><g id="link_Ophaalpunt_PakketBinnen"><path d="M83.33,921.6969 C90.3,933.0569 99.55,946.2469 109.97,956.2969 C116.59,962.6869 119.3615,965.2581 127.1815,970.5181 " fill="none" id="Ophaalpunt-to-PakketBinnen" style="stroke:#181818;stroke-width:1.0;"/><polygon fill="#181818" points="132.16,973.8669,126.9247,965.5247,128.0112,971.0763,122.4597,972.1628,132.16,973.8669" style="stroke:#181818;stroke-width:1.0;"/><text fill="#000000" font-family="sans-serif" font-size="13" lengthAdjust="spacing" textLength="157.9932" x="110.97" y="952.3638">Pakket wordt opgehaald</text></g><!--SRC=[bP5DImCn48Rl-ok6NWIXOEa7fGV1ugsY2nuyY8VPxZHTcoOXEsjXnV_kRE9-LEh1d4BcUJ9v9rUGsf8V7o3rTajbKZ8omUZiS0HOjjXd0h9UhzzWFBw5PqPt0ojumUsUoO1ruF1m88OFD71tnDgQ84ImLIQYf96pXWLLubum9i7OK5NJHgFXNbDKMiz4FW_m06bxJ7ku9hsJf-rHa_aBd_MunYPAHhNrYlh7p3fsBkmwbhq4oCcVIC5Hr1Y-K-QTiXWg6Ma6nFxgHU1Y-tLXZBHVmJrLShkZtrYpMxRrJ1VlEuQyaFbtt39mJn8OjQlEneR8O11z64UiTjhq_ze0lf3WnpvPdyj7EqKD73yi-Ve6]--></g></svg>